<svg width="32" height="32" viewBox="0 0 180 180" fill="none" xmlns="http://www.w3.org/2000/svg">
  <!-- Background -->
  <rect fill="#18181b" width="180" height="180" rx="40"/>
  
  <!-- Paper/Note -->
  <rect fill="#fafafa" x="30" y="30" width="85" height="105" rx="6"/>
  
  <!-- Lines on paper -->
  <line stroke="#a1a1aa" x1="40" y1="50" x2="105" y2="50" stroke-width="2.5" stroke-linecap="round"/>
  <line stroke="#a1a1aa" x1="40" y1="65" x2="98" y2="65" stroke-width="2.5" stroke-linecap="round"/>
  <line stroke="#a1a1aa" x1="40" y1="80" x2="90" y2="80" stroke-width="2.5" stroke-linecap="round"/>
  <line stroke="#a1a1aa" x1="40" y1="95" x2="82" y2="95" stroke-width="2.5" stroke-linecap="round"/>
  <line stroke="#a1a1aa" x1="40" y1="110" x2="74" y2="110" stroke-width="2.5" stroke-linecap="round"/>
  
  <!-- Tea cup -->
  <g transform="translate(105, 85)">
    <path fill="#a1a1aa" d="M10 10 L10 45 Q10 55 25 55 L35 55 Q50 55 50 45 L50 10 Z"/>
    <path stroke="#a1a1aa" d="M50 18 Q65 18 65 32 Q65 46 50 46" stroke-width="6" fill="none"/>
    <path stroke="#a1a1aa" d="M20 5 Q22 -2 20 -8" stroke-width="2" fill="none" stroke-linecap="round"/>
    <path stroke="#a1a1aa" d="M30 3 Q32 -4 30 -10" stroke-width="2" fill="none" stroke-linecap="round"/>
    <path stroke="#a1a1aa" d="M40 5 Q42 -2 40 -8" stroke-width="2" fill="none" stroke-linecap="round"/>
  </g>
  
  <!-- Strike through -->
  <line stroke="#ef4444" x1="100" y1="75" x2="165" y2="150" stroke-width="6" stroke-linecap="round"/>
</svg>
